/* XPM */
static char *_bda3547d7ca4146859e1a99f569bbb3puNYoESCa2KJ4sjm[] = {
/* columns rows colors chars-per-pixel */
"64 64 243 2 ",
"   c #0C0705",
".  c #130603",
"X  c #150A04",
"o  c #1B0B05",
"O  c #1C0E0B",
"+  c #170A0A",
"@  c #1D120D",
"#  c #15140B",
"$  c #170E11",
"%  c #1D1412",
"&  c #1C1818",
"*  c #220E0B",
"=  c #230D06",
"-  c #23130D",
";  c #271306",
":  c #231613",
">  c #251915",
",  c #2B1A15",
"<  c #241B1C",
"1  c #2B1C1A",
"2  c #271617",
"3  c #331D1B",
"4  c #331A17",
"5  c #31160F",
"6  c #2C231C",
"7  c #26221D",
"8  c #32241D",
"9  c #39251B",
"0  c #261D21",
"q  c #3B1B25",
"w  c #2D2423",
"e  c #2B2627",
"r  c #342523",
"t  c #3C2623",
"y  c #342A23",
"u  c #3B2C24",
"i  c #342D2C",
"p  c #3B2E2A",
"a  c #362528",
"s  c #3C312C",
"d  c #343227",
"f  c #392D31",
"g  c #3C3534",
"h  c #3B3935",
"j  c #42281D",
"k  c #461C25",
"l  c #432B22",
"z  c #462C25",
"x  c #4C3325",
"c  c #43332C",
"v  c #4C342A",
"b  c #4C392E",
"n  c #443328",
"m  c #543A2D",
"M  c #5C3D2E",
"N  c #523528",
"B  c #492D35",
"V  c #5A2A36",
"C  c #433533",
"Z  c #443A33",
"A  c #4C3C34",
"S  c #433C3C",
"D  c #4A3A39",
"F  c #543D33",
"G  c #5B3D31",
"H  c #56373B",
"J  c #613D37",
"K  c #603F2E",
"L  c #4D423C",
"P  c #47453B",
"I  c #554135",
"U  c #5C4135",
"Y  c #53433B",
"T  c #5B453B",
"R  c #5B493C",
"E  c #52483E",
"W  c #62412E",
"Q  c #634334",
"!  c #694635",
"~  c #64463A",
"^  c #654A3D",
"/  c #6B4A3D",
"(  c #684739",
")  c #734F3D",
"_  c #573D47",
"`  c #683B44",
"'  c #703D4C",
"]  c #3E4245",
"[  c #494544",
"{  c #524542",
"}  c #534A44",
"|  c #5C4A42",
" . c #574C49",
".. c #5A524C",
"X. c #55504D",
"o. c #5A5654",
"O. c #50504F",
"+. c #644E44",
"@. c #6B4D41",
"#. c #664946",
"$. c #724F43",
"%. c #6B5243",
"&. c #63534B",
"*. c #685549",
"=. c #735242",
"-. c #775848",
";. c #6D5C54",
":. c #665A56",
">. c #725D52",
",. c #765E5A",
"<. c #734954",
"1. c #6C625B",
"2. c #67635B",
"3. c #77665B",
"4. c #75614F",
"5. c #765662",
"6. c #6A6464",
"7. c #736562",
"8. c #736B64",
"9. c #7A6B63",
"0. c #766B6B",
"q. c #7B7169",
"w. c #7A7675",
"e. c #6F6D72",
"r. c #5B605A",
"t. c #845B44",
"y. c #87624C",
"u. c #936749",
"i. c #8A6A56",
"p. c #966D53",
"a. c #8E715C",
"s. c #977359",
"d. c #AC7D5C",
"f. c #A3775C",
"g. c #895A66",
"h. c #837165",
"j. c #83756C",
"k. c #8B7A6D",
"l. c #89766A",
"z. c #957865",
"x. c #837572",
"c. c #847A73",
"v. c #8C7D73",
"b. c #857D7C",
"n. c #8A7D79",
"m. c #877674",
"M. c #947878",
"N. c #8A6B6E",
"B. c #A57D61",
"V. c #8B827B",
"C. c #948173",
"Z. c #93847C",
"A. c #99867C",
"S. c #9B8A7C",
"D. c #988779",
"F. c #92816F",
"G. c #AA8568",
"H. c #B38C6D",
"J. c #BA8E6D",
"K. c #B18765",
"L. c #BD926E",
"P. c #B6906C",
"I. c #B58D72",
"U. c #B88E75",
"Y. c #B69174",
"T. c #BB9475",
"R. c #BC957A",
"E. c #BD9A7C",
"W. c #BA9879",
"Q. c #A28C78",
"!. c #C29573",
"~. c #C49975",
"^. c #C29B7D",
"/. c #CB9E7C",
"(. c #CA9D76",
"). c #CBA27E",
"_. c #D2A27E",
"`. c #A47987",
"'. c #8B8785",
"]. c #948B85",
"[. c #9A8A84",
"{. c #9B938D",
"}. c #93948B",
"|. c #9D9897",
" X c #8E8E90",
".X c #A28E86",
"XX c #A4938A",
"oX c #AC948C",
"OX c #A69587",
"+X c #BF9C80",
"@X c #B2938E",
"#X c #A79A95",
"$X c #AD8F93",
"%X c #9EA29A",
"&X c #ABA39C",
"*X c #A9A197",
"=X c #B5A59A",
"-X c #ABA5A6",
";X c #B4AAA3",
":X c #B4ADAB",
">X c #BCADAB",
",X c #B7A9A5",
"<X c #B8B2AD",
"1X c #BBB4B2",
"2X c #B9B7B9",
"3X c #B2AEB1",
"4X c #A79FA4",
"5X c #C29E82",
"6X c #C5A184",
"7X c #CBA483",
"8X c #CFA887",
"9X c #C6A488",
"0X c #C9A58A",
"qX c #C7A88C",
"wX c #CBA98D",
"eX c #D1A482",
"rX c #D3AA88",
"tX c #CFAD91",
"yX c #C4B4A7",
"uX c #C7BBB7",
"iX c #C6AEB0",
"pX c #C09AA7",
"aX c #BAC0B6",
"sX c #C9C4BD",
"dX c #D3C4BA",
"fX c #BFBFC1",
"gX c #CBBFC3",
"hX c #BFC2C3",
"jX c #CAC7C6",
"kX c #D4C9C7",
"lX c #DBD2CD",
"zX c #D4D1CC",
"xX c #CCD2D4",
"cX c #D8D8D6",
"vX c #DACED0",
"bX c #E4DADA",
"nX c #E1CDCF",
"mX c #DEE0DD",
"MX c #EAE3DD",
"NX c #DDE4E1",
"BX c #E6E8E5",
"VX c #F3F0F0",
"CX c #DBDFE0",
/* pixels */
"6X6XW.W.E.^.E.=X).).E.E.).+XqXtXqXqX0XrX/.p.t.) k = = = A 9.F.*.X > @ > @ % @ @ @ - % % - > : % > % - : : : , > : 2 > 2 > , , , ",
"6X).).E.).).E.^.=X).).=XqXqX).=XqXqX9XeX_.p.t.) k 5 = * Y R 4.C.s   > @ @ > @ > % % - % > # - % % > : : : > : > : : - , > > , , ",
"^.+XW.E.).).E.^.).^.E.+XtXtX8XqXqXqX9XeX(.f.t.) l 4 o . L 1.4.k.q.X @ # + - @ @ % % - % : % > 7 - % : : : 2 : , 2 : 2 : 2 2 2 , ",
"E.^.^.^.=X+XE.^.W.).E.+XtXtXqXqXwX0X7X_./.p.t.) k * . 2 P ;.2.l.Z.E X - @ @ % @ : # - % % > - # % : : > : > : : : 2 > 2 2 2 , 2 ",
"E.).E.+XwXqX+X+X^.6X6X6XrXwXqXqXqXwXqX5X(.f.u.) x 2 + $ f } E E j.v.- X > - - % % : % - % % - & : % > > > > : : > - 2 > 2 , , , ",
"E.E.W.W.).).^.^.9XqXqXqXtX8X).qXwXwX0X7X/.f.t.=.l * $ 0 _ w.V.q.8.D...X 6 - # - # - % % : : & : % - - > > > , : 2 2 : : > > , , ",
"E.E.W.W.W.E.W.E.6X6X^.^.qX8X+XqXqX0XeXeXeXf.y.) z O $ 0 [ O.:.w.q.V.Z.u ; > X @ - - % % % > : % # % > > - > : : - > 5 > 2 2 2 , ",
").E.W.P.W.W.E.^.^.^.W.W.qXtXqXqXwXwXeX/.eXd.u.) l 4 $ $ O.e.e.0.q.j.S.2.o , > - @ @ % > # - & : : > > > > > : : - 2 : : 2 2 , 2 ",
").qXqXqXqX6X6X6XqX^.W.Y.E.qXwX9X8XqX8X).rXK.u.-.z % $ e e.'.b.].v.9.3.XX8 o 6 - # @ @ : % % & % : : 2 O 1 : : - , : @ : 1 , O 4 ",
"W.^.).).^.).qXwX).qX6XE.+XqX0X6X=X+X).).).d.u.) H < $ 0 r.`.|.b.l.v.l.h.3.n n 8 8 , @ : % % : % @ @ 1 : , O : : : 1 2 : 2 1 2 : ",
"^.).^.E.W.^.6XqX+XqXqX9X6X9X9X9X+X+X).).).f.u.-.z - $ $ ] O.b.[.k.v.3.*.S.1.Y , c Z > > : + & % > @ : : 1 : 2 : o - , - - 2 4 2 ",
"qX+X).W.W.W.^.^.E.qXqX7X6X9XqXwXwX6X7X)._.K.u.t.l 4 $ $ S f C [.A.v.3.3.h.;.L X } ..y w % 7 % % > > : : : @ : @ 1 : : 1 r : : - ",
"^.^.).E.E.^.6XqXE.6X9X6X6X6XqXwXtXqXqX)._.d.u.t.N 5 * $ _ g % :.OXS.v.h.*.R u = 1.3.y s w } < @ # > 1 1 : 1 1 1 2 1 * . : : r 2 ",
"E.^.E.E.^.).6X6X+X+X6X5X5X6X6X0XqXqX7X)._.d.u.) N = * $ i _ C  .D.k.4.&.;.| n , q.1.w C [ b.g y { s > > 2 1 : @ o t 7.=X#X3 o 3 ",
"E.E.E.W.W.E.+XE.E.+X6X5X5X+X6X6X6X+X).(._.K.u.t.M = 2 * D { h.k.,.-.I v *.>.b 8 1.D r C :.].S } #X:.1 w 1 1 2 c q.uXVXMXkX&.r 2 ",
"W.W.W.W.W.E.6X6XW.E.5X6X5X+X5X9XqX9X_._._.d.u.t.x 5 * % ,.C N.v.^ ^ I I R 1.L 8 Y : 6 u :.w.g 2.;X3.c D D  .b.kXbXbXiX-X#Xp * 4 ",
"^.E.E.E.E.^.+X6XU.5XU.U.5X5X5X0X5X0XrX5XeXd.p.t.N 5 = 3 ,.D 9 I I x / &.*.j.D s 8 > 8 6 } 8.6 c.*Xk.4.F.*XkXcXxX3X2X3X4Xb.: , , ",
"8X=XqXqX6X+X+X^.5X5XU.5X5X5X5X5X0X0XeXeXeXd.p.t.K ; = q ;.B 9 m W ) %.R [.}.6 [ P > ; > I E d V.a.Q.=XdXlXjXjXjXhX3X4X4X5., 9 5 ",
"8XqXqXqXqX9X6X6X5X9X5X!.eXeX5XeX0X9XeX5XeXK.p.y.N 5 - 2 { H b I / 4.M.F 9.#Xr V.I 6 ; d | } E ].D.W.oX[.,X1XjXjXjX3X-X'.Z , 4 , ",
"^.+X+XqX9XqX9X9X9X5X5X5X5X0X0X5X5X9XeXeXeXK.s.y.N 5 2 * D | *.>.4.a.v.j.'.2.g {.P 8 ; d 9.2.X.S.F.Q.OXOX,X2XjXfX2X3X4Xr.1 > 4 5 ",
"5X5X0X5X6X6X5X5X5X5X5XU.5XeXeX5X6X6X8X).rXK.s.y.G = * a Y L R 4.| S.{.[.1X].o.b.;.I d I Z.3.o.=XOXF.F.<XuX<XjXxX3X2X-XC 2 , 4 3 ",
"0X0X5X5X6X6X6X6X5XU.!.5XU.5X0X5X5X6X8X).rXJ.s.t.G = 2 B c y 8 u 8 R j.Z X.*X].7.V.;.1.1.*X2.2.sXF.a.k.yXyX>X:X2X3X2X|.e r , 4 3 ",
"5X5X9X9X9X0X9X9X5X5X5X5X5X5XeX5X6X+X).^.8XK.p.y.x ; , a 2 > @ o - 6 # +   h &X1.c.8.F.F.OX..8.;X2.D.S.XX&X&X:XgXgXpXb.p r 4 3 3 ",
"@X+X5X9X9X5X5X5X5X!.5X5X5X!.5X5X6X5X).~.).G.p.y.G O * a : @ - , | 8.g L X.X.:Xq.j.F.V.q.V...}.%X3.S.F.V.dXsX1XuXvX4X7._ t t 3 j ",
"5X5X+XR.+X+X+XU.5X+X^.^.5XeX5X5X9X9XrX/.(.P.p.u.I # , > : + > s V.&XX.C g 6.:Xc.{.F.Q.j.*XsX2X|.*XyXF.j.XX#X[.#X1Xw.{ B t t 3 l ",
"5X5X+X+X5X5X+X+X+X5X^.5X5X5X5X!.5X5XrX7X).P.F.t.x ; 6 7 < & 6 Z } XX#X%   p ;X#XOXQ.OXq.lXX.2.-XyXyX=Xl.9.].7.c.m._ c t t t 4 j ",
"5X5X5X5X5X5X5X5X!.5X5X^.5XeX5X5XE.E.8X).(.P.F.y.N ; , @ % % 7 d [ D {.|...6 [.dX=X=XOXdXF.7 & ] dX=XOX#X9.F | v.#.c t t l t 3 j ",
"5X9X5X5X5X5X5X5X5X5X5X^.5X5X5X5XE.E.).).~.P.u.y.m * : $ % # 7 8 Z Z 7.:XbXY h..XQ.yXdXyX2.c.'.7 3.yXXX#XD.F m D.T l t l l j k l ",
"+X9X9X5X5X5X5X5X5X5X5X!.5X5X5X!.E.^.).).~.P.p.y.F O % 0 0 0 > 8 Z E c 3.V.u *.;.F.a.<XF.P 7 w.r.P R F.*X{.F.3.Q.v j j l 9 l l N ",
"@X5X5X5X5X5X5X5X5X5X5X5X5X5X5X!.E.E.7X7X).P.p.4.G o < e f 0 # & , 8 9.uX;.v I R 4.-.Q.I P # ] e.=X9 8 Q.Q.D.OXC.x 4 l l j x z x ",
"5X5X5X5X+X9X5X@X5X5X5X5X!.!.5X@XE.E.7X).).~.s.i.F * < < 0 & $ > 6 I XX#Xk.-.x R -.R / b zX-X}.hXMX=Xo 9 a.F.k./ x j x N z N N x ",
"5X5X9X5X+X5X5X5X5X5X5X!.5X5X5X!.5XE.).~.).W.F.p.F * 2 $ & < w u ;.h.XXyX#X=XI ; ^ b R E *XzXzX<X=X*XI ; I F.3.l x j x N x m m m ",
"9X9X6X6X+X+X^.+XE.^.^.).E.).^.E.5X5X5X!.eX!.f.i.~ o : > : 1 , 5 ,.oX@XlXkXlX,X8 r Z Z.;.v.;.h.F.8.1.6 o 8 ;.h.c n v v N N N m M ",
"6X9X+X+X+XE.W.R.E.E.E.R.E.~.^.E.+X5X!./.eX!.f.i.G * 2 6 2 u n v $.N.$XdXlXVXBXg [ MXiXj.,XOXR 3.8.w.} - 8 &.;.F b b N N m m M M ",
"+X6X5X+X+XE.R.R.E.E.R.L.T.R.~.E.@XT.5X/.eX!.f.a.U * 2 a 2 r b #.i.@XXX>XBXcXlXe.1XVX1X,XuXdXi.I P X.2.u y Y | b b F F F G M M K ",
"+X+X+X6X5X5X^.^.E.E.R.T.T.T.R.W.Y.R.5XeXeX!.f.i.~ o > p 2 > 9 +.m..XM.>XnXzXzX*XvXlXkXlXdXdX4.9 I ..Z - r | | n b N N F m G K K ",
"6X6X6X9X6X5X5X5X^.^.^.^.T.R.~.W.+X+X+X^.5X!.f.i.~ o : a a u u b *..X9.x.yXjX-Xw.gXvXvXsXdXyXC.Y P j.} s u Y A A b m m M M G J Q ",
"6X+X6X+X5X+X+XE.E.^.^.^.T.R.R.R.+X+X6X).(.!.f.p.U * : r C :.&.A >.=XZ.u b.0.C 0 3XvXkXkX,X=X=X+.: s L V.A u A x b m G M G K Q Q ",
"+X+X+X+X+X+XE.E.R.^.^.!.T.W.E.E.6XE.^.~.(.!.B.s.G * % < s :.7.3.Z.A..Xa q a 2 . :.gXyX,XuXS.3.U d . # ;.L I I x F M U U J J ~ ~ ",
"+XW.+XE.E.E.E.5XT.E.E.T.Y.Y.).6XE.E.R.!.(.!.B.z.T o + > w H h.OXXXoXXXt 4 B q 0 a b.x.{ *XoX3.F R ..8 , Y &.l T G G G Q Q ~ ~ ( ",
"+X+X+X9X+XE.W.E.^.E.R.R.~.).^.6X+XW.W.L.~.L.f.p.U @ : $ + 6 ;.[.XXoXXXB 2 V q q q q a 5.yXA.N.h.;.b.E y | +.H m F G Q ~ ~ J ~ ! ",
"+X+X+X+X6X+XE.+X^.E.~.R.E.E.).).6X+X).~.~.!.G.a.^ o # @ w [ 7.A.[.OXoXJ k V k k _ 2 B |.>X[.M.;.:. .Y Y &.I v ~ M K Q ! ! ~ ! ~ ",
"5X+X+X+X+XE.E.5X^.E.R.~.R.W.^.).^.E.).).~.!.d.a.^ o + & p X.0.D.[.@X@XJ k ' B ` ' + 0.gX,XXX+.n a s 7.7.Y F b G M G J W J ! / @.",
"+XE.R.+XR.R.E.E.R.R.R.T.T.T.R.R.E.E.).).!.L.G.a.^ > 1 w S :.7.q.F.@X@X` k ' V g._ 0 iXgX&X8.8 u C  .m.9.F F G M M K J ! / J @.@.",
"U.R.+X+X+XW.R.W.R.W.E.T.T.Y.L.W.).W.~.!.~.!.d.a.+.- & w P ..o...3.[.@X` V <.' g._ 5.xXgXw.< I 2.n.9...&.| N G Q K K ! J ! / $.$.",
"W.W.+X+XE.+XR.R.T.E.E.R.W.L.T.W.E.W.~.(.(.(.G.z.Q o # & y P 2.V.q.S.oX~ ' g.g.`.' 3XxX%XS h V.}.].6.p Y &.N F Q ! ! ! ! @./ @.$.",
"oXE.+X+XW.+XE.R.R.E.E.~.T.T.W.W.E.~.(.!.!.(.B.z.+.> < & & g 8.=XOXS.OXJ <.f.`.`.e.bXgXr.O.}.-X%X`.:.C A T G ! K ! ! J ) / / ` $.",
"E.E.+XU.R.W.R.W.T.W.^.R.W.L.P.W.W.W.!.!.!.!.B.z.R o % & & 7 O.w.&X}.#X#.g.M.`.`.5.BX4X_ %X3XaX<X-Xo.D F Q $.K ! J ! / ) J / / / ",
"R.E.R.T.U.R.E.R.R.R.T.Y.T.T.P.^.U.R.R.T.T.L.G.i.Y - @ $ &   & O.}.|.{.`.N.`.pX_ $XbX|.%XhXhXhXhX'.6.[ P I Q / W Q ( / @.%.%.=.%.",
"R.E.+XR.U.R.R.R.E.^.T.U.R.T.T.^.R.+XE.~.~.T.G.a.E X + & &   # h |.3X`.[.iXpXpX`.bXxX4XhXCXxXxXxXhXb.{ A I W W W W W U ~ ~ ~ ~ / ",
"U.5X+XU.R.R.T.T.^.R.U.R.R.T.T.^.R.W.T.!.~.T.G.z.&.+ $ $ 7 h d #  XjX|.m.,XiXgXnXvXgXNXVXNXxXCXxX2X'...Y ^ ^ W ! U U ^ %.#.^ @.$.",
"^.U.5XR.T.T.U.T.^.^.!.T.R.T.U.^.R.U.T.!.~.P.G.i.I + &   & h [ h e.sX3X{.#X>XkXcXbXCXVXCXCXCXxX4Xw.`.7.Y U ! W W W W ^ ^ ~ ^ / / ",
"U.+X5XU.U.U.I.U.~.^.R.T.T.P.T.^.+XR.!.^.^.H.s.i.v X < 0 & & P '.&XjXsXaXsXuXkXcXBXCXCXBXVXxX%XO.r. Xn.#.A M W M Q Q ~ ^ ^ ^ / ~ ",
"^.U.U.U.U.U.U.U.R.^.T.T.R.T.J.^.R.^.5X/./.Y.G.i.+.o & 0 e & d r.%XcXcXzXbXMXbXVXBXVXCXCXNX2X Xo.O.r.0.*.T Q ! ! ( ^ ^ @.%.@.@./ ",
"+XU.@X+X+XU.U.U.R.^.T.T.E.T.T.^.R.^.^.^./.^.I.z.@.+ % < i f i 7 o.<XlXzXMXMXcXcXCXBXBXCXxXhXw._ 0 e [ { T Q Q Q Q Q ~ ^ ^ ^ / / ",
"!.+X!.!.U.U.U.5XR.^.R.T.^.R.T.^.^.5X/.~.~.!.G.a.+.. a g i ] 6.8.2.%XsXMXbXcXcXCXNXCXBXCX-X|.o.f e e h  .U U ! W Q Q / #.^ ~ / / ",
"U.^.5XU.U.I.I.U.^.T.I.T.R.R.R.T.^.U.U.!.U.!.H.a.#.* & 0 e P r.o.2.}.;XlXsX1X<X<XjXmXBXsX<X2X,X>X-Xe.X.R R ! ) ! / %.-.*.@./ ^ / ",
"5XU.5X+XR.I.I.I.!.R.T.T.~.^.R.T.U.U.!.!.!.U.G.a.*.2 0 0 7 & P } 2...Q.<XXX*X}.V.sXzXNXaX;X,X[.0.w.8.7.2.^ R ! W Q ( ^ ^ ~ T J K ",
"U.U.+X+XR.I.H.H.E.R.T.T.R.^.R.T.U.U.!.!.!.J.G.i.@.2 % 0 e d ..8.*.I P 1.q.V.c.d Z.aX&X2X<Xb.7.C < f } R I W / ! ) %./ @.@.%./ / ",
"+XU.R.+XU.I.H.H.E.R.T.T.R.^.~.R.^.U.!.!.!.J.B.i.#.3 e g O.o.} h 7 d o ; m.D.;.X 7 {.w.P Z 6 B a e h } R R ) -.) / / @.^ @.@./ @.",
"U.U.U.5XR.U.I.W.R.R.R.R.~.^.R.T.U.U.U.J.J.U.B.a.>.l a f P g 7 X # 8 E 9 [.=X,.Z X E *Xw.} Z + i h _ [ } R Q Q ! ( ^ / ^ ^ R ~ ~ ",
"5XU.U.U.U.I.Y.W.J.T.T.Y.P.R.T.P.U.H.J.J.J.U.I.a.>.3 < < $   & y y d :.;.XX=XXXv.d   8.sXsX{.h w S [  .&.-./ / ) ( / %.%.@.@./ / ",
"U.I.I.U.I.H.H.I.G.Y.P.P.P.R.T.I.I.H.J.!.!.T.G.z.<.2 0 0 #   7 d # # P q.#X=XuXOXr.6 & 2.'.}.'.[ [ [ S Y ^ ^ W ) ( ( ~ #.^ ^ ~ ( ",
"U.I.U.U.U.I.H.H.H.T.T.T.R.^.^.R.U.I.!.!.!.J.B.i.-.2 2 & # 7 Z d # # 8.D.=XuX$Xl.Z Z #   # & [ o.O.} s c U ^ ! ! ( U J U ^ ~ Q M "
};
